<svg width="170" height="170" viewBox="0 0 170 170" fill="none" xmlns="http://www.w3.org/2000/svg">
  <path d="M20.47 135.586c-6.176-8.764-8.407-18.528-8.341-28.974.079-12.532 3.715-24.195 8.66-35.52 5.69-13.029 13.525-24.6 24.15-34.12 3.998-3.582 8.37-6.746 12.574-10.097.47-.375.966-.719 1.45-1.078l-.175-.397c-.532.169-1.076.306-1.594.51-6.57 2.599-12.227 6.635-17.407 11.341C32.111 44.226 25.48 52.108 20.29 61.1c-2.398 4.155-4.263 8.615-6.44 12.9-.76 1.495-1.731 2.883-2.607 4.32l-.694.011c-1.018-3.55-2.333-7.047-3.004-10.663C4.861 53.2 10.178 41.31 20.031 31.14 30.755 20.07 44.063 13.417 58.72 9.218c8.457-2.422 17.08-3.423 25.86-2.735 5.489.43 10.67 1.907 15.401 5.214-1.214.999-2.385 1.918-3.509 2.892-6.399 5.542-11.032 12.436-14.9 19.856-4.523 8.676-8.76 17.502-13.318 26.159-2.538 4.818-5.727 9.243-9.67 13.058-5.627 5.442-12.612 8.254-19.995 10.316-4.567 1.276-9.102 2.662-13.649 4.008-1.477.437-2.225 1.394-2.622 2.948-2.963 11.606-2.556 22.864 3.973 33.226 4.483 7.115 10.634 12.36 19.216 13.969 5.762 1.082 10.497-.961 14.18-5.381 1.29-1.55 2.342-3.34 3.274-5.14 5.433-10.5 10.686-21.097 16.235-31.536 2.744-5.162 3.608-10.307 1.516-15.813-2.285-6.015-1.695-11.787 1.46-17.303 5.025-8.787 10.07-17.564 15.22-26.28 2.267-3.838 4.81-7.515 7.325-11.418l5.013 2.598c-.343.691-.626 1.28-.925 1.862-5.532 10.764-11.191 21.467-16.525 32.329-1.65 3.359-2.518 7.122-3.558 10.754-.797 2.781-.271 5.536 1.075 8.061 2.405 4.51 2.446 8.959.498 13.7-4.674 11.375-10.323 22.265-15.961 33.168-2.443 4.723-4.951 9.417-7.253 14.209-3.855 8.023-10.92 11.076-19.2 9.886-11.224-1.613-20.415-7.052-27.411-16.239M59.298 25.46l.066-.19c-.066.021-.132.042-.066.19" fill="#6AB551"/>
  <path d="M143.762 37.466c-2.592-3.078-4.957-6.212-7.686-8.99-2.716-2.764-5.797-5.17-9.01-7.988.847.354 1.435.502 1.917.815 18.168 11.777 29.778 28.25 33.76 49.489 5.333 28.442-3.399 52.745-23.978 72.657-12.3 11.9-27.356 18.68-44.415 20.842-10.58 1.342-20.996.603-31.443-2.27.255-.607.454-1.166.714-1.695 7.944-16.14 15.825-32.313 23.88-48.397 2.81-5.61 5.99-11.04 9.121-16.481 1.91-3.32 4.919-5.392 8.678-5.953 4.412-.658 7.564-2.978 10.149-6.436 4.44-5.943 7.527-12.63 10.668-19.275 3.358-7.108 6.52-14.307 9.77-21.466.161-.357.333-.708.581-1.23l5.136 2.44c-1.44 4.046-2.713 8.023-4.261 11.89-3.782 9.445-7.69 18.839-11.555 28.25-.193.47-.472.903-.676 1.37-2.361 5.398-6.36 8.938-11.947 10.817-1.969.663-3.856 1.625-5.694 2.61-2.504 1.34-4.007 3.644-5.221 6.102-7.218 14.606-14.398 29.231-21.588 43.851-.143.292-.248.604-.472 1.153 3.56 0 6.939.176 10.293-.032 12.759-.789 24.554-4.675 35.093-11.899 16.152-11.07 26.415-26.257 30.081-45.523 3.76-19.759-.448-37.978-11.895-54.65" fill="#F58736"/>
  <path d="M124.084 36.718c.266-.504.483-.892.776-1.413l7.586 3.717c-1.452 2.956-2.841 5.786-4.232 8.615-5.042 10.25-10.095 20.494-15.115 30.755-.895 1.829-2.165 3.08-4.289 3.03-3.026-.072-4.904-2.887-3.816-5.748.581-1.527 1.37-2.976 2.094-4.446 5.645-11.467 11.298-22.93 16.996-34.51m-21.271 34.805c-.336.67-.59 1.238-.882 1.787-1.341 2.525-3.56 3.348-5.931 2.212-2.15-1.029-2.904-3.51-1.721-5.97 1.739-3.62 3.545-7.206 5.317-10.81l13.699-27.864c.147-.298.327-.58.569-1.005l7.624 3.792a66743 66743 0 0 1-18.675 37.858" fill="#F58736"/>
  <path d="M59.232 25.397c0-.085.066-.105.132-.127-.022.064-.044.128-.132.127" fill="#FFFFFE"/>
</svg>
